<mxfile host="app.diagrams.net" modified="2022-11-01T19:20:00.480Z" agent="5.0 (Windows NT 10.0; Win64; x64) AppleWebKit/537.36 (KHTML, like Gecko) Chrome/105.0.0.0 Safari/537.36 OPR/91.0.4516.106" etag="f-50LrHCtQ2p3uDRgC9E" version="20.5.1" type="github">
  <diagram name="Page-1" id="5f0bae14-7c28-e335-631c-24af17079c00">
    <mxGraphModel dx="952" dy="527" grid="1" gridSize="10" guides="1" tooltips="1" connect="1" arrows="1" fold="1" page="1" pageScale="1" pageWidth="1100" pageHeight="850" background="none" math="0" shadow="0">
      <root>
        <mxCell id="0" />
        <mxCell id="1" parent="0" />
        <mxCell id="39150e848f15840c-1" value="SignUp page" style="verticalAlign=top;align=left;spacingTop=8;spacingLeft=2;spacingRight=12;shape=cube;size=10;direction=south;fontStyle=4;html=1;rounded=0;shadow=0;comic=0;labelBackgroundColor=none;strokeWidth=1;fontFamily=Verdana;fontSize=12" parent="1" vertex="1">
          <mxGeometry x="120" y="70" width="330" height="220" as="geometry" />
        </mxCell>
        <mxCell id="39150e848f15840c-2" value="Chat page" style="verticalAlign=top;align=left;spacingTop=8;spacingLeft=2;spacingRight=12;shape=cube;size=10;direction=south;fontStyle=4;html=1;rounded=0;shadow=0;comic=0;labelBackgroundColor=none;strokeWidth=1;fontFamily=Verdana;fontSize=12" parent="1" vertex="1">
          <mxGeometry x="530" y="70" width="330" height="220" as="geometry" />
        </mxCell>
        <mxCell id="39150e848f15840c-3" value="Backend" style="verticalAlign=top;align=left;spacingTop=8;spacingLeft=2;spacingRight=12;shape=cube;size=10;direction=south;fontStyle=4;html=1;rounded=0;shadow=0;comic=0;labelBackgroundColor=none;strokeWidth=1;fontFamily=Verdana;fontSize=12" parent="1" vertex="1">
          <mxGeometry x="370" y="410" width="260" height="150" as="geometry" />
        </mxCell>
        <mxCell id="39150e848f15840c-4" value="SignUpStyles" style="html=1;rounded=0;shadow=0;comic=0;labelBackgroundColor=none;strokeWidth=1;fontFamily=Verdana;fontSize=12;align=center;" parent="1" vertex="1">
          <mxGeometry x="140" y="120" width="110" height="50" as="geometry" />
        </mxCell>
        <mxCell id="39150e848f15840c-5" value="SignUp" style="shape=component;align=left;spacingLeft=36;rounded=0;shadow=0;comic=0;labelBackgroundColor=none;strokeWidth=1;fontFamily=Verdana;fontSize=12;html=1;" parent="1" vertex="1">
          <mxGeometry x="310" y="150" width="120" height="60" as="geometry" />
        </mxCell>
        <mxCell id="39150e848f15840c-7" value="Chat" style="shape=component;align=left;spacingLeft=36;rounded=0;shadow=0;comic=0;labelBackgroundColor=none;strokeWidth=1;fontFamily=Verdana;fontSize=12;html=1;" parent="1" vertex="1">
          <mxGeometry x="550" y="150" width="120" height="60" as="geometry" />
        </mxCell>
        <mxCell id="39150e848f15840c-8" value="ChatStyles" style="html=1;rounded=0;shadow=0;comic=0;labelBackgroundColor=none;strokeWidth=1;fontFamily=Verdana;fontSize=12;align=center;" parent="1" vertex="1">
          <mxGeometry x="710" y="90" width="110" height="50" as="geometry" />
        </mxCell>
        <mxCell id="39150e848f15840c-10" value="websocket" style="shape=component;align=left;spacingLeft=36;rounded=0;shadow=0;comic=0;labelBackgroundColor=none;strokeWidth=1;fontFamily=Verdana;fontSize=12;html=1;" parent="1" vertex="1">
          <mxGeometry x="445" y="440" width="145" height="50" as="geometry" />
        </mxCell>
        <mxCell id="39150e848f15840c-17" style="edgeStyle=orthogonalEdgeStyle;rounded=0;html=1;labelBackgroundColor=none;startArrow=none;startFill=0;startSize=8;endArrow=none;endFill=0;endSize=16;fontFamily=Verdana;fontSize=12;" parent="1" source="39150e848f15840c-3" target="39150e848f15840c-2" edge="1">
          <mxGeometry relative="1" as="geometry">
            <Array as="points">
              <mxPoint x="695" y="485" />
            </Array>
          </mxGeometry>
        </mxCell>
        <mxCell id="39150e848f15840c-18" style="edgeStyle=orthogonalEdgeStyle;rounded=0;html=1;labelBackgroundColor=none;startArrow=none;startFill=0;startSize=8;endArrow=none;endFill=0;endSize=16;fontFamily=Verdana;fontSize=12;" parent="1" source="39150e848f15840c-3" target="39150e848f15840c-1" edge="1">
          <mxGeometry relative="1" as="geometry">
            <Array as="points">
              <mxPoint x="285" y="485" />
            </Array>
          </mxGeometry>
        </mxCell>
        <mxCell id="4KY2vWg7KnPedK3QlQqd-3" value="Bcrypt" style="html=1;rounded=0;shadow=0;comic=0;labelBackgroundColor=none;strokeWidth=1;fontFamily=Verdana;fontSize=12;align=center;" vertex="1" parent="1">
          <mxGeometry x="152.5" y="230" width="85" height="50" as="geometry" />
        </mxCell>
        <mxCell id="4KY2vWg7KnPedK3QlQqd-5" value="MongoDB" style="verticalAlign=top;align=left;spacingTop=8;spacingLeft=2;spacingRight=12;shape=cube;size=10;direction=south;fontStyle=4;html=1;rounded=0;shadow=0;comic=0;labelBackgroundColor=none;strokeWidth=1;fontFamily=Verdana;fontSize=12" vertex="1" parent="1">
          <mxGeometry x="370" y="660" width="260" height="150" as="geometry" />
        </mxCell>
        <mxCell id="4KY2vWg7KnPedK3QlQqd-6" value="Mongoose" style="shape=component;align=left;spacingLeft=36;rounded=0;shadow=0;comic=0;labelBackgroundColor=none;strokeWidth=1;fontFamily=Verdana;fontSize=12;html=1;" vertex="1" parent="1">
          <mxGeometry x="500" y="500" width="110" height="50" as="geometry" />
        </mxCell>
        <mxCell id="4KY2vWg7KnPedK3QlQqd-31" value="" style="rounded=0;orthogonalLoop=1;jettySize=auto;html=1;endArrow=none;endFill=0;sketch=0;sourcePerimeterSpacing=0;targetPerimeterSpacing=0;exitX=0.006;exitY=0.625;exitDx=0;exitDy=0;exitPerimeter=0;" edge="1" target="4KY2vWg7KnPedK3QlQqd-33" parent="1" source="39150e848f15840c-5">
          <mxGeometry relative="1" as="geometry">
            <mxPoint x="310" y="335" as="sourcePoint" />
          </mxGeometry>
        </mxCell>
        <mxCell id="4KY2vWg7KnPedK3QlQqd-32" value="" style="rounded=0;orthogonalLoop=1;jettySize=auto;html=1;endArrow=halfCircle;endFill=0;entryX=0.5;entryY=0.5;endSize=6;strokeWidth=1;sketch=0;exitX=1;exitY=0.25;exitDx=0;exitDy=0;" edge="1" target="4KY2vWg7KnPedK3QlQqd-33" parent="1" source="4KY2vWg7KnPedK3QlQqd-3">
          <mxGeometry relative="1" as="geometry">
            <mxPoint x="350" y="335" as="sourcePoint" />
          </mxGeometry>
        </mxCell>
        <mxCell id="4KY2vWg7KnPedK3QlQqd-33" value="" style="ellipse;whiteSpace=wrap;html=1;align=center;aspect=fixed;resizable=0;points=[];outlineConnect=0;sketch=0;" vertex="1" parent="1">
          <mxGeometry x="270" y="240" width="10" height="10" as="geometry" />
        </mxCell>
        <mxCell id="4KY2vWg7KnPedK3QlQqd-36" value="" style="rounded=0;orthogonalLoop=1;jettySize=auto;html=1;endArrow=none;endFill=0;sketch=0;sourcePerimeterSpacing=0;targetPerimeterSpacing=0;exitX=0;exitY=0.3;exitDx=0;exitDy=0;" edge="1" target="4KY2vWg7KnPedK3QlQqd-38" parent="1" source="39150e848f15840c-5">
          <mxGeometry relative="1" as="geometry">
            <mxPoint x="310" y="335" as="sourcePoint" />
          </mxGeometry>
        </mxCell>
        <mxCell id="4KY2vWg7KnPedK3QlQqd-37" value="" style="rounded=0;orthogonalLoop=1;jettySize=auto;html=1;endArrow=halfCircle;endFill=0;entryX=0.5;entryY=0.5;endSize=6;strokeWidth=1;sketch=0;exitX=0.994;exitY=0.122;exitDx=0;exitDy=0;exitPerimeter=0;" edge="1" target="4KY2vWg7KnPedK3QlQqd-38" parent="1" source="39150e848f15840c-4">
          <mxGeometry relative="1" as="geometry">
            <mxPoint x="350" y="335" as="sourcePoint" />
          </mxGeometry>
        </mxCell>
        <mxCell id="4KY2vWg7KnPedK3QlQqd-38" value="" style="ellipse;whiteSpace=wrap;html=1;align=center;aspect=fixed;resizable=0;points=[];outlineConnect=0;sketch=0;" vertex="1" parent="1">
          <mxGeometry x="270" y="150" width="10" height="10" as="geometry" />
        </mxCell>
        <mxCell id="4KY2vWg7KnPedK3QlQqd-39" value="" style="rounded=0;orthogonalLoop=1;jettySize=auto;html=1;endArrow=none;endFill=0;sketch=0;sourcePerimeterSpacing=0;targetPerimeterSpacing=0;exitX=0;exitY=0.3;exitDx=0;exitDy=0;" edge="1" target="4KY2vWg7KnPedK3QlQqd-41" parent="1" source="39150e848f15840c-10">
          <mxGeometry relative="1" as="geometry">
            <mxPoint x="310" y="335" as="sourcePoint" />
          </mxGeometry>
        </mxCell>
        <mxCell id="4KY2vWg7KnPedK3QlQqd-40" value="" style="rounded=0;orthogonalLoop=1;jettySize=auto;html=1;endArrow=halfCircle;endFill=0;entryX=0.5;entryY=0.5;endSize=6;strokeWidth=1;sketch=0;exitX=0.25;exitY=1;exitDx=0;exitDy=0;" edge="1" target="4KY2vWg7KnPedK3QlQqd-41" parent="1" source="39150e848f15840c-5">
          <mxGeometry relative="1" as="geometry">
            <mxPoint x="350" y="335" as="sourcePoint" />
          </mxGeometry>
        </mxCell>
        <mxCell id="4KY2vWg7KnPedK3QlQqd-41" value="" style="ellipse;whiteSpace=wrap;html=1;align=center;aspect=fixed;resizable=0;points=[];outlineConnect=0;sketch=0;" vertex="1" parent="1">
          <mxGeometry x="380" y="340" width="10" height="10" as="geometry" />
        </mxCell>
        <mxCell id="4KY2vWg7KnPedK3QlQqd-42" value="" style="rounded=0;orthogonalLoop=1;jettySize=auto;html=1;endArrow=none;endFill=0;sketch=0;sourcePerimeterSpacing=0;targetPerimeterSpacing=0;exitX=0;exitY=0.7;exitDx=0;exitDy=0;" edge="1" target="4KY2vWg7KnPedK3QlQqd-44" parent="1" source="39150e848f15840c-7">
          <mxGeometry relative="1" as="geometry">
            <mxPoint x="310" y="335" as="sourcePoint" />
          </mxGeometry>
        </mxCell>
        <mxCell id="4KY2vWg7KnPedK3QlQqd-43" value="" style="rounded=0;orthogonalLoop=1;jettySize=auto;html=1;endArrow=halfCircle;endFill=0;entryX=0.5;entryY=0.5;endSize=6;strokeWidth=1;sketch=0;exitX=0.25;exitY=0;exitDx=0;exitDy=0;" edge="1" target="4KY2vWg7KnPedK3QlQqd-44" parent="1" source="39150e848f15840c-10">
          <mxGeometry relative="1" as="geometry">
            <mxPoint x="350" y="335" as="sourcePoint" />
          </mxGeometry>
        </mxCell>
        <mxCell id="4KY2vWg7KnPedK3QlQqd-44" value="" style="ellipse;whiteSpace=wrap;html=1;align=center;aspect=fixed;resizable=0;points=[];outlineConnect=0;sketch=0;" vertex="1" parent="1">
          <mxGeometry x="500" y="320" width="10" height="10" as="geometry" />
        </mxCell>
        <mxCell id="4KY2vWg7KnPedK3QlQqd-45" value="" style="rounded=0;orthogonalLoop=1;jettySize=auto;html=1;endArrow=none;endFill=0;sketch=0;sourcePerimeterSpacing=0;targetPerimeterSpacing=0;exitX=0.5;exitY=0;exitDx=0;exitDy=0;" edge="1" target="4KY2vWg7KnPedK3QlQqd-47" parent="1" source="39150e848f15840c-10">
          <mxGeometry relative="1" as="geometry">
            <mxPoint x="310" y="335" as="sourcePoint" />
          </mxGeometry>
        </mxCell>
        <mxCell id="4KY2vWg7KnPedK3QlQqd-46" value="" style="rounded=0;orthogonalLoop=1;jettySize=auto;html=1;endArrow=halfCircle;endFill=0;entryX=0.5;entryY=0.5;endSize=6;strokeWidth=1;sketch=0;exitX=0.25;exitY=1;exitDx=0;exitDy=0;" edge="1" target="4KY2vWg7KnPedK3QlQqd-47" parent="1" source="39150e848f15840c-7">
          <mxGeometry relative="1" as="geometry">
            <mxPoint x="350" y="335" as="sourcePoint" />
          </mxGeometry>
        </mxCell>
        <mxCell id="4KY2vWg7KnPedK3QlQqd-47" value="" style="ellipse;whiteSpace=wrap;html=1;align=center;aspect=fixed;resizable=0;points=[];outlineConnect=0;sketch=0;" vertex="1" parent="1">
          <mxGeometry x="530" y="330" width="10" height="10" as="geometry" />
        </mxCell>
        <mxCell id="4KY2vWg7KnPedK3QlQqd-48" value="" style="rounded=0;orthogonalLoop=1;jettySize=auto;html=1;endArrow=none;endFill=0;sketch=0;sourcePerimeterSpacing=0;targetPerimeterSpacing=0;exitX=0.75;exitY=0;exitDx=0;exitDy=0;" edge="1" target="4KY2vWg7KnPedK3QlQqd-50" parent="1" source="39150e848f15840c-7">
          <mxGeometry relative="1" as="geometry">
            <mxPoint x="310" y="335" as="sourcePoint" />
          </mxGeometry>
        </mxCell>
        <mxCell id="4KY2vWg7KnPedK3QlQqd-49" value="" style="rounded=0;orthogonalLoop=1;jettySize=auto;html=1;endArrow=halfCircle;endFill=0;entryX=0.5;entryY=0.5;endSize=6;strokeWidth=1;sketch=0;exitX=0;exitY=0.5;exitDx=0;exitDy=0;" edge="1" target="4KY2vWg7KnPedK3QlQqd-50" parent="1" source="39150e848f15840c-8">
          <mxGeometry relative="1" as="geometry">
            <mxPoint x="350" y="335" as="sourcePoint" />
          </mxGeometry>
        </mxCell>
        <mxCell id="4KY2vWg7KnPedK3QlQqd-50" value="" style="ellipse;whiteSpace=wrap;html=1;align=center;aspect=fixed;resizable=0;points=[];outlineConnect=0;sketch=0;" vertex="1" parent="1">
          <mxGeometry x="670" y="120" width="10" height="10" as="geometry" />
        </mxCell>
        <mxCell id="4KY2vWg7KnPedK3QlQqd-51" value="" style="rounded=0;orthogonalLoop=1;jettySize=auto;html=1;endArrow=none;endFill=0;sketch=0;sourcePerimeterSpacing=0;targetPerimeterSpacing=0;exitX=0;exitY=0.3;exitDx=0;exitDy=0;" edge="1" target="4KY2vWg7KnPedK3QlQqd-53" parent="1" source="4KY2vWg7KnPedK3QlQqd-6">
          <mxGeometry relative="1" as="geometry">
            <mxPoint x="410" y="515" as="sourcePoint" />
          </mxGeometry>
        </mxCell>
        <mxCell id="4KY2vWg7KnPedK3QlQqd-52" value="" style="rounded=0;orthogonalLoop=1;jettySize=auto;html=1;endArrow=halfCircle;endFill=0;entryX=0.5;entryY=0.5;endSize=6;strokeWidth=1;sketch=0;exitX=0.25;exitY=1;exitDx=0;exitDy=0;" edge="1" target="4KY2vWg7KnPedK3QlQqd-53" parent="1" source="39150e848f15840c-10">
          <mxGeometry relative="1" as="geometry">
            <mxPoint x="450" y="515" as="sourcePoint" />
          </mxGeometry>
        </mxCell>
        <mxCell id="4KY2vWg7KnPedK3QlQqd-53" value="" style="ellipse;whiteSpace=wrap;html=1;align=center;aspect=fixed;resizable=0;points=[];outlineConnect=0;sketch=0;" vertex="1" parent="1">
          <mxGeometry x="480" y="500" width="10" height="10" as="geometry" />
        </mxCell>
        <mxCell id="4KY2vWg7KnPedK3QlQqd-54" value="" style="rounded=0;orthogonalLoop=1;jettySize=auto;html=1;endArrow=none;endFill=0;sketch=0;sourcePerimeterSpacing=0;targetPerimeterSpacing=0;exitX=0;exitY=0;exitDx=0;exitDy=125;exitPerimeter=0;" edge="1" target="4KY2vWg7KnPedK3QlQqd-56" parent="1" source="4KY2vWg7KnPedK3QlQqd-5">
          <mxGeometry relative="1" as="geometry">
            <mxPoint x="410" y="515" as="sourcePoint" />
          </mxGeometry>
        </mxCell>
        <mxCell id="4KY2vWg7KnPedK3QlQqd-55" value="" style="rounded=0;orthogonalLoop=1;jettySize=auto;html=1;endArrow=halfCircle;endFill=0;entryX=0.5;entryY=0.5;endSize=6;strokeWidth=1;sketch=0;exitX=0;exitY=0.7;exitDx=0;exitDy=0;" edge="1" target="4KY2vWg7KnPedK3QlQqd-56" parent="1" source="4KY2vWg7KnPedK3QlQqd-6">
          <mxGeometry relative="1" as="geometry">
            <mxPoint x="450" y="515" as="sourcePoint" />
          </mxGeometry>
        </mxCell>
        <mxCell id="4KY2vWg7KnPedK3QlQqd-56" value="" style="ellipse;whiteSpace=wrap;html=1;align=center;aspect=fixed;resizable=0;points=[];outlineConnect=0;sketch=0;" vertex="1" parent="1">
          <mxGeometry x="480" y="590" width="10" height="10" as="geometry" />
        </mxCell>
      </root>
    </mxGraphModel>
  </diagram>
</mxfile>
